<svg xmlns="http://www.w3.org/2000/svg" viewBox="0 0 100 100" width="100" height="100">
  <circle cx="50" cy="50" r="40" fill="#333" />
  <path d="M50,15 C30.7,15 15,30.7 15,50 C15,65.5 25.3,78.5 39.8,83.3 C41.3,83.6 41.9,82.7 41.9,81.9 C41.9,81.2 41.9,79.1 41.9,76.3 C32.5,78.5 30.7,71.4 30.7,71.4 C29.3,67.2 27.2,66.2 27.2,66.2 C24.4,64 27.5,64 27.5,64 C30.7,64.3 32.5,67.5 32.5,67.5 C35.4,73.2 40.1,71.7 42,70.9 C42.3,68.4 43.3,66.9 44.2,66 C36.6,65.1 28.7,61.9 28.7,48.2 C28.7,44 30.1,40.7 32.5,38 C32.2,37.2 31,33.9 32.8,29.2 C32.8,29.2 35.7,28.3 41.9,32.7 C44.5,31.9 47.3,31.6 50,31.6 C52.7,31.6 55.5,31.9 58.1,32.7 C64.3,28.3 67.2,29.2 67.2,29.2 C69,33.9 67.8,37.2 67.5,38 C69.9,40.7 71.3,44 71.3,48.2 C71.3,61.9 63.4,65.1 55.8,66 C57,67.2 58.1,69.3 58.1,72.6 C58.1,77.4 58.1,80.9 58.1,81.9 C58.1,82.7 58.7,83.6 60.2,83.3 C74.7,78.5 85,65.5 85,50 C85,30.7 69.3,15 50,15 Z" fill="white" />
  <text x="50" y="75" font-family="Arial" font-size="8" fill="white" text-anchor="middle" font-weight="bold">GitHub</text>
</svg>