<svg xmlns="http://www.w3.org/2000/svg" viewBox="0 0 48 48" width="200" height="200">
  <!-- 左尖括号 -->
  <path d="M12,24 L19,17 C19.4,16.6 19.4,16 19,15.6 C18.6,15.2 18,15.2 17.6,15.6 L9.6,23.6 C9.2,24 9.2,24.6 9.6,25 L17.6,33 C18,33.4 18.6,33.4 19,33 C19.4,32.6 19.4,32 19,31.6 L12,24 Z" fill="#2563EB" />
  
  <!-- 右尖括号 -->
  <path d="M36,24 L29,17 C28.6,16.6 28.6,16 29,15.6 C29.4,15.2 30,15.2 30.4,15.6 L38.4,23.6 C38.8,24 38.8,24.6 38.4,25 L30.4,33 C30,33.4 29.4,33.4 29,33 C28.6,32.6 28.6,32 29,31.6 L36,24 Z" fill="#6366F1" />
  
  <!-- 中间斜杠 -->
  <path d="M30,12 L18,36" stroke="#4F46E5" stroke-width="3" stroke-linecap="round" />
  
  <!-- 星星装饰 -->
  <path d="M8,8 L9,11 L12,12 L9,13 L8,16 L7,13 L4,12 L7,11 Z" fill="#2563EB" />
  <path d="M4,12 L5,13 L6,14 L5,15 L4,16 L3,15 L2,14 L3,13 Z" fill="#2563EB" opacity="0.7" />

</svg>